HIERARCHY
ROOT SpineBase
{
  OFFSET 0.000000 0.000000 0.000000
  CHANNELS 6 Xposition Yposition Zposition Zrotation Xrotation Yrotation
  JOINT SpineMid
  {
    OFFSET 0.000000 31.753809 0.000000
    CHANNELS 3 Zrotation Xrotation Yrotation
    JOINT SpineShoulder
    {
      OFFSET 0.285371 23.578701 -0.761301
      CHANNELS 3 Zrotation Xrotation Yrotation
      JOINT Neck
      {
        OFFSET 0.217011 7.800233 -0.565869
        CHANNELS 3 Zrotation Xrotation Yrotation
        JOINT Head
        {
          OFFSET 4.131737 12.868868 4.263227
          CHANNELS 3 Zrotation Xrotation Yrotation
          End Site
          {
            OFFSET 0 0 0
          }
        }
      }
      JOINT ShoulderLeft
      {
        OFFSET -7.337269 -2.745954 -13.565711
        CHANNELS 3 Zrotation Xrotation Yrotation
        JOINT ElbowLeft
        {
          OFFSET -6.298360 -26.595510 -10.817311
          CHANNELS 3 Zrotation Xrotation Yrotation
          JOINT WristLeft
          {
            OFFSET 1.768549 -24.029128 -6.571801
            CHANNELS 3 Zrotation Xrotation Yrotation
            JOINT HandLeft
            {
              OFFSET 0.843864 -5.675085 -1.997922
              CHANNELS 3 Zrotation Xrotation Yrotation
              JOINT HandTipLeft
              {
                OFFSET 2.368939 -8.439850 -2.157798
                CHANNELS 3 Zrotation Xrotation Yrotation
                End Site
                {
                  OFFSET 0 0 0
                }
              }
              JOINT ThumbLeft
              {
                OFFSET 2.451674 0.983684 5.917257
                CHANNELS 3 Zrotation Xrotation Yrotation
                End Site
                {
                  OFFSET 0 0 0
                }
              }
            }
          }
        }
      }
      JOINT ShoulderRight
      {
        OFFSET 8.426378 -5.376917 14.869489
        CHANNELS 3 Zrotation Xrotation Yrotation
        JOINT ElbowRight
        {
          OFFSET 0.859166 -32.044811 4.986034
          CHANNELS 3 Zrotation Xrotation Yrotation
          JOINT WristRight
          {
            OFFSET 3.397551 -23.699959 0.599213
            CHANNELS 3 Zrotation Xrotation Yrotation
            JOINT HandRight
            {
              OFFSET 0.784878 -3.361196 -5.266075
              CHANNELS 3 Zrotation Xrotation Yrotation
              JOINT HandTipRight
              {
                OFFSET 3.927688 -4.580097 -4.526268
                CHANNELS 3 Zrotation Xrotation Yrotation
                End Site
                {
                  OFFSET 0 0 0
                }
              }
              JOINT ThumbRight
              {
                OFFSET -0.287221 2.964408 -6.143654
                CHANNELS 3 Zrotation Xrotation Yrotation
                End Site
                {
                  OFFSET 0 0 0
                }
              }
            }
          }
        }
      }
    }
  }
  JOINT HipLeft
  {
    OFFSET -2.271294 2.428849 -8.493921
    CHANNELS 3 Zrotation Xrotation Yrotation
    JOINT KneeLeft
    {
      OFFSET -4.489670 -33.367270 -3.300981
      CHANNELS 3 Zrotation Xrotation Yrotation
      JOINT AnkleLeft
      {
        OFFSET -9.985739 -35.695480 3.573873
        CHANNELS 3 Zrotation Xrotation Yrotation
        JOINT FootLeft
        {
          OFFSET 3.783558 -6.814266 -3.632061
          CHANNELS 3 Zrotation Xrotation Yrotation
          End Site
          {
            OFFSET 0 0 0
          }
        }
      }
    }
  }
  JOINT HipRight
  {
    OFFSET 4.872259 -0.413804 1.889744
    CHANNELS 3 Zrotation Xrotation Yrotation
    JOINT KneeRight
    {
      OFFSET 11.048588 -36.049945 8.297231
      CHANNELS 3 Zrotation Xrotation Yrotation
      JOINT AnkleRight
      {
        OFFSET -4.131857 -36.727858 2.660796
        CHANNELS 3 Zrotation Xrotation Yrotation
        JOINT FootRight
        {
          OFFSET 7.204564 -2.786050 -5.882312
          CHANNELS 3 Zrotation Xrotation Yrotation
          End Site
          {
            OFFSET 0 0 0
          }
        }
      }
    }
  }
}
MOTION
Frames: 13
Frame Time: 0.033333
-117.087604 77.964856 279.715293 4.954551 -2.522327 -49.345042 0.492069 0.419509 49.655124 -0.009233 -0.450298 0.300461 6.447235 -14.801628 2.903388 0.000000 0.000000 0.000000 9.204904 5.563670 -8.238730 73.919454 -29.723887 8.019866 8.490189 -18.623077 0.229938 -9.485177 29.795666 -8.575797 0.000000 0.000000 0.000000 0.000000 0.000000 0.000000 34.019286 31.238821 -5.990289 71.288759 51.031701 -36.301238 -37.635185 -31.851410 -58.173876 -41.374746 -22.273528 36.164015 0.000000 0.000000 0.000000 0.000000 0.000000 0.000000 -8.038886 -1.213170 49.019754 6.560633 -8.814713 3.073607 -6.668461 2.594726 -3.149095 0.000000 0.000000 0.000000 -20.720824 -4.594553 48.777095 27.695665 -16.818192 6.319520 -12.268393 13.267185 7.002732 0.000000 0.000000 0.000000
-117.129348 77.909177 279.847128 5.107774 -2.761292 -49.634499 0.458200 0.363294 49.965851 -0.049283 -0.411993 0.303275 6.531283 -14.585179 2.821856 0.000000 0.000000 0.000000 11.031899 3.996396 -8.638080 71.770355 -29.082717 6.454179 9.587116 -18.896071 -0.061549 -12.529973 26.534069 -4.539558 0.000000 0.000000 0.000000 0.000000 0.000000 0.000000 32.698363 30.242567 -5.488290 81.686253 57.024573 -52.459084 -35.963806 -39.327375 -55.235780 -29.421633 -22.490623 34.188108 0.000000 0.000000 0.000000 0.000000 0.000000 0.000000 -8.502572 -1.025856 49.280417 6.507012 -9.119445 3.144284 -6.845140 2.285880 -3.237074 0.000000 0.000000 0.000000 -20.782715 -4.608327 49.093862 27.463817 -16.437145 6.173668 -12.210512 12.897503 6.758162 0.000000 0.000000 0.000000
-117.192619 77.855374 279.956512 5.247085 -2.960539 -49.737561 0.462311 0.300478 50.089992 -0.076415 -0.375033 0.307077 6.547619 -14.262433 2.697512 0.000000 0.000000 0.000000 12.506581 2.581773 -8.894259 70.119154 -28.322269 4.804672 11.244445 -20.572700 1.156803 -15.160490 25.362718 -2.050645 0.000000 0.000000 0.000000 0.000000 0.000000 0.000000 32.614144 29.945504 -5.455100 86.966650 57.074742 -57.049135 -38.666978 -35.464744 -55.855018 -45.101186 -31.433561 26.633132 0.000000 0.000000 0.000000 0.000000 0.000000 0.000000 -8.891231 -0.867727 49.362585 6.529678 -9.413583 3.231901 -6.558166 2.985663 -3.074741 0.000000 0.000000 0.000000 -20.868082 -4.593298 49.218884 27.349651 -16.168114 6.088718 -12.217864 12.653342 6.585385 0.000000 0.000000 0.000000
-117.255757 77.799692 280.071939 5.375809 -3.215621 -49.745940 0.456833 0.260248 50.121240 -0.087402 -0.363030 0.314203 6.462178 -13.902601 2.592116 0.000000 0.000000 0.000000 13.449031 1.614153 -9.033838 68.864739 -27.533868 3.275326 13.016462 -22.243296 2.536267 -18.602493 24.717457 0.974309 0.000000 0.000000 0.000000 0.000000 0.000000 0.000000 32.628434 29.811740 -5.520254 93.372110 56.683171 -62.210616 -44.646600 -34.088032 -58.568106 -25.625652 -24.641896 29.812024 0.000000 0.000000 0.000000 0.000000 0.000000 0.000000 -9.364077 -0.657560 49.356547 6.557877 -9.695923 3.304194 -6.165791 3.796390 -2.860502 0.000000 0.000000 0.000000 -21.049551 -4.484689 49.282288 27.268915 -16.049455 6.040763 -12.237997 12.513727 6.452694 0.000000 0.000000 0.000000
-117.313342 77.746863 280.179937 5.470326 -3.453344 -49.760879 0.462824 0.240553 50.156327 -0.101336 -0.352426 0.320503 6.583359 -13.829684 2.569737 0.000000 0.000000 0.000000 13.865428 1.209984 -9.111174 68.765125 -27.210122 2.502747 12.947153 -23.262426 4.327935 -19.025121 26.815174 0.203704 0.000000 0.000000 0.000000 0.000000 0.000000 0.000000 32.588400 29.667173 -5.562193 95.507292 54.767957 -60.602636 -41.827050 -31.745138 -59.514053 -29.126203 -29.493793 28.798333 0.000000 0.000000 0.000000 0.000000 0.000000 0.000000 -9.785788 -0.525272 49.372128 6.649285 -9.819174 3.328009 -5.315605 4.724803 -2.799529 0.000000 0.000000 0.000000 -21.268593 -4.349716 49.365778 27.258898 -16.064803 6.035253 -12.299067 12.473320 6.414742 0.000000 0.000000 0.000000
-117.376592 77.699192 280.261172 5.564370 -3.683388 -49.664071 0.438824 0.198955 50.079217 -0.122938 -0.320418 0.322983 6.879737 -13.969818 2.606589 0.000000 0.000000 0.000000 13.493992 1.435594 -9.009106 69.872218 -27.353371 2.357800 11.781819 -24.335950 6.867302 -16.955924 30.226741 -3.163011 0.000000 0.000000 0.000000 0.000000 0.000000 0.000000 32.497483 29.374696 -5.519950 98.894725 53.420607 -61.377042 -42.546540 -29.988153 -61.139484 -29.819195 -31.678292 27.815511 0.000000 0.000000 0.000000 0.000000 0.000000 0.000000 -10.149571 -0.457820 49.291570 6.788180 -9.828189 3.325951 -4.587689 5.285580 -2.886858 0.000000 0.000000 0.000000 -21.570453 -4.174546 49.348611 27.361553 -16.270537 6.099735 -12.420898 12.593288 6.463299 0.000000 0.000000 0.000000
-117.434724 77.665252 280.304957 5.642357 -3.893161 -49.557367 0.416177 0.145477 49.991093 -0.152049 -0.279733 0.323330 7.249188 -14.196350 2.670708 0.000000 0.000000 0.000000 14.079820 1.011127 -9.128604 70.324735 -27.328446 1.939368 9.671224 -23.275853 6.998013 -14.816016 29.816181 -4.688123 0.000000 0.000000 0.000000 0.000000 0.000000 0.000000 32.366785 28.959029 -5.414443 99.433583 51.416040 -58.169178 -43.450841 -27.706187 -63.309176 -31.439426 -32.619388 27.946914 0.000000 0.000000 0.000000 0.000000 0.000000 0.000000 -10.412340 -0.481962 49.217535 6.964583 -9.705868 3.293244 -3.980329 5.731157 -2.972898 0.000000 0.000000 0.000000 -21.879258 -4.032568 49.303459 27.558004 -16.507222 6.202317 -12.595789 12.776992 6.594069 0.000000 0.000000 0.000000
-117.484321 77.638387 280.334264 5.719110 -4.084391 -49.525672 0.396256 0.101934 49.976985 -0.172368 -0.240867 0.324219 7.608785 -14.524742 2.778739 0.000000 0.000000 0.000000 14.713364 0.659655 -9.310926 70.852860 -27.427399 1.802860 6.342379 -21.013659 6.190379 -11.551552 29.366270 -6.987672 0.000000 0.000000 0.000000 0.000000 0.000000 0.000000 32.353832 28.746200 -5.396596 99.777961 51.033877 -58.136483 -43.551964 -27.422795 -63.571104 -31.399334 -32.586717 28.085736 0.000000 0.000000 0.000000 0.000000 0.000000 0.000000 -10.628128 -0.580505 49.224125 7.162202 -9.509162 3.240210 -3.330859 6.199529 -3.064181 0.000000 0.000000 0.000000 -22.207607 -3.911354 49.335539 27.778295 -16.822300 6.325280 -12.783783 13.012987 6.773968 0.000000 0.000000 0.000000
-117.530481 77.622936 280.355937 5.800529 -4.243313 -49.445262 0.374676 0.061498 49.912733 -0.191133 -0.201461 0.324835 7.866013 -14.816932 2.885874 0.000000 0.000000 0.000000 15.362033 0.327514 -9.514624 71.363903 -27.505576 1.732332 2.662639 -18.422320 5.342407 -8.207306 28.238231 -8.786094 0.000000 0.000000 0.000000 0.000000 0.000000 0.000000 32.445659 28.663552 -5.430524 102.107664 51.247311 -61.202102 -43.430585 -27.606817 -63.297132 -30.294431 -33.404062 27.342019 0.000000 0.000000 0.000000 0.000000 0.000000 0.000000 -10.779344 -0.718520 49.184796 7.349820 -9.265165 3.175665 -3.059356 6.216595 -3.180448 0.000000 0.000000 0.000000 -22.536616 -3.805844 49.308899 28.034936 -17.148249 6.462963 -12.983697 13.266553 6.974807 0.000000 0.000000 0.000000
-117.563704 77.609674 280.339102 5.866267 -4.385314 -49.483059 0.342417 0.025888 49.964191 -0.199303 -0.168472 0.325069 8.035868 -14.913988 2.915318 0.000000 0.000000 0.000000 15.946163 0.267659 -9.792166 71.901402 -27.642686 2.068205 -0.656206 -14.800793 3.245843 -6.086574 25.124531 -8.295245 0.000000 0.000000 0.000000 0.000000 0.000000 0.000000 32.624611 28.840813 -5.561987 103.350608 51.430043 -62.916106 -43.355261 -27.719606 -63.123405 -29.344655 -33.873089 26.949509 0.000000 0.000000 0.000000 0.000000 0.000000 0.000000 -10.898842 -0.833042 49.255683 7.472053 -9.105507 3.132965 -3.367265 5.717545 -3.262068 0.000000 0.000000 0.000000 -22.813513 -3.761682 49.381448 28.307838 -17.428843 6.601381 -13.207110 13.510804 7.196543 0.000000 0.000000 0.000000
-117.576049 77.598171 280.300914 5.911818 -4.498020 -49.449089 0.297123 0.003872 49.939566 -0.209071 -0.129210 0.323193 8.092531 -14.949631 2.935439 0.000000 0.000000 0.000000 16.423806 0.349867 -10.066153 72.199943 -27.607263 2.408984 -2.851901 -11.721038 1.336027 -5.756407 21.664105 -6.100275 0.000000 0.000000 0.000000 0.000000 0.000000 0.000000 32.843649 29.173351 -5.733891 104.683951 52.154163 -65.743409 -43.030399 -28.478899 -62.336331 -28.716179 -34.565539 26.119661 0.000000 0.000000 0.000000 0.000000 0.000000 0.000000 -11.000439 -0.866207 49.243922 7.555996 -9.095976 3.138775 -3.974058 5.277456 -3.208611 0.000000 0.000000 0.000000 -23.062012 -3.713897 49.373869 28.571187 -17.700586 6.737979 -13.402368 13.760350 7.422284 0.000000 0.000000 0.000000
-117.569550 77.591303 280.244245 5.938862 -4.575156 -49.414815 0.258769 -0.021188 49.911636 -0.226596 -0.086302 0.319650 8.207639 -15.094660 2.994736 0.000000 0.000000 0.000000 16.762936 0.609248 -10.330586 72.208262 -27.461019 2.810103 -3.609379 -9.255135 -0.706826 -6.448285 18.832213 -3.625609 0.000000 0.000000 0.000000 0.000000 0.000000 0.000000 32.974620 29.574412 -5.901113 104.778265 52.943333 -67.143162 -42.697469 -29.295047 -61.540631 -27.999851 -34.426298 25.964278 0.000000 0.000000 0.000000 0.000000 0.000000 0.000000 -11.077674 -0.845789 49.219945 7.603392 -9.192127 3.178132 -5.103511 4.315956 -3.187721 0.000000 0.000000 0.000000 -23.227092 -3.681918 49.355172 28.782505 -17.884613 6.843403 -13.573108 13.950837 7.624939 0.000000 0.000000 0.000000
-117.566530 77.589535 280.199688 5.961380 -4.637053 -49.376249 0.199406 -0.044052 49.877157 -0.242652 -0.039311 0.314634 8.264792 -15.150558 3.019005 0.000000 0.000000 0.000000 16.893989 0.876830 -10.482841 71.975872 -27.117915 2.886931 -3.135473 -9.059186 -1.206167 -7.917399 18.225506 -2.160570 0.000000 0.000000 0.000000 0.000000 0.000000 0.000000 33.075314 29.962293 -6.043289 102.975299 53.235455 -65.313240 -42.663916 -29.444272 -61.453839 -28.182928 -33.711716 26.470281 0.000000 0.000000 0.000000 0.000000 0.000000 0.000000 -11.126133 -0.835108 49.191624 7.650742 -9.282213 3.218366 -5.833563 3.891773 -3.114460 0.000000 0.000000 0.000000 -23.326134 -3.631706 49.339796 28.882685 -18.015766 6.903617 -13.686509 14.090906 7.789408 0.000000 0.000000 0.000000
